HIERARCHY
ROOT Hips
{
	OFFSET 0.000000 97.167313 0.000000
	CHANNELS 6 Xposition Yposition Zposition Xrotation Yrotation Zrotation
	JOINT Spine
	{
		OFFSET 0.000000 13.784798 0.064400
		CHANNELS 3 Xrotation Yrotation Zrotation
		JOINT Spine1
		{
			OFFSET 0.000000 12.037903 0.404700
			CHANNELS 3 Xrotation Yrotation Zrotation
			JOINT Spine2
			{
				OFFSET 0.000000 17.795601 0.420200
				CHANNELS 3 Xrotation Yrotation Zrotation
				JOINT Neck
				{
					OFFSET 0.000000 39.131302 11.954600
					CHANNELS 3 Xrotation Yrotation Zrotation
					JOINT Head
					{
						OFFSET 0.000000 14.456192 15.627699
						CHANNELS 3 Xrotation Yrotation Zrotation
						JOINT HeadTop_End
						{
							OFFSET 0.000000 15.703506 7.603401
							CHANNELS 3 Xrotation Yrotation Zrotation
							End Site
							{
								OFFSET 0.000000 17.447403 0.000000
							}
						}
					}
				}
				JOINT LeftShoulder
				{
					OFFSET 17.399500 24.608795 1.168800
					CHANNELS 3 Xrotation Yrotation Zrotation
					JOINT LeftArm
					{
						OFFSET 18.980635 5.765305 1.818600
						CHANNELS 3 Xrotation Yrotation Zrotation
						JOINT LeftForeArm
						{
							OFFSET 49.290169 0.000000 0.000000
							CHANNELS 3 Xrotation Yrotation Zrotation
							JOINT LeftHand
							{
								OFFSET 31.562012 0.000000 0.000000
								CHANNELS 3 Xrotation Yrotation Zrotation
								JOINT LeftHandThumb1
								{
									OFFSET 6.133995 -4.388519 7.076070
									CHANNELS 3 Xrotation Yrotation Zrotation
									JOINT LeftHandThumb2
									{
										OFFSET 6.037666 -3.485840 3.485847
										CHANNELS 3 Xrotation Yrotation Zrotation
										JOINT LeftHandThumb3
										{
											OFFSET 6.496506 -3.750763 3.750761
											CHANNELS 3 Xrotation Yrotation Zrotation
											JOINT LeftHandThumb4
											{
												OFFSET 5.616882 -3.242905 3.242910
												CHANNELS 3 Xrotation Yrotation Zrotation
												End Site
												{
													OFFSET -1.254608 7.132141 0.375429
												}
											}
										}
									}
								}
								JOINT LeftHandPinky1
								{
									OFFSET 18.920792 -0.453171 -11.426712
									CHANNELS 3 Xrotation Yrotation Zrotation
									JOINT LeftHandPinky2
									{
										OFFSET 4.919586 0.000000 0.000000
										CHANNELS 3 Xrotation Yrotation Zrotation
										JOINT LeftHandPinky3
										{
											OFFSET 5.233047 0.000000 0.000000
											CHANNELS 3 Xrotation Yrotation Zrotation
											JOINT LeftHandPinky4
											{
												OFFSET 5.571716 0.000000 0.000000
												CHANNELS 3 Xrotation Yrotation Zrotation
												End Site
												{
													OFFSET -3.459808 4.342407 -0.466164
												}
											}
										}
									}
								}
								JOINT LeftHandRing1
								{
									OFFSET 22.726120 -0.094986 -6.500475
									CHANNELS 3 Xrotation Yrotation Zrotation
									JOINT LeftHandRing2
									{
										OFFSET 6.408615 0.000000 0.000000
										CHANNELS 3 Xrotation Yrotation Zrotation
										JOINT LeftHandRing3
										{
											OFFSET 6.150223 0.000000 0.000000
											CHANNELS 3 Xrotation Yrotation Zrotation
											JOINT LeftHandRing4
											{
												OFFSET 6.145386 0.000000 0.000000
												CHANNELS 3 Xrotation Yrotation Zrotation
												End Site
												{
													OFFSET -3.671402 4.923981 -0.202372
												}
											}
										}
									}
								}
								JOINT LeftHandMiddle1
								{
									OFFSET 23.373947 0.000000 0.000001
									CHANNELS 3 Xrotation Yrotation Zrotation
									JOINT LeftHandMiddle2
									{
										OFFSET 6.996567 0.000000 0.000000
										CHANNELS 3 Xrotation Yrotation Zrotation
										JOINT LeftHandMiddle3
										{
											OFFSET 7.015945 0.000000 0.000000
											CHANNELS 3 Xrotation Yrotation Zrotation
											JOINT LeftHandMiddle4
											{
												OFFSET 7.721573 0.000000 0.000000
												CHANNELS 3 Xrotation Yrotation Zrotation
												End Site
												{
													OFFSET -4.651108 6.158463 0.251582
												}
											}
										}
									}
								}
								JOINT LeftHandIndex1
								{
									OFFSET 21.310577 -0.490082 6.209344
									CHANNELS 3 Xrotation Yrotation Zrotation
									JOINT LeftHandIndex2
									{
										OFFSET 7.536453 0.000000 0.000000
										CHANNELS 3 Xrotation Yrotation Zrotation
										JOINT LeftHandIndex3
										{
											OFFSET 7.512344 0.000000 0.000000
											CHANNELS 3 Xrotation Yrotation Zrotation
											JOINT LeftHandIndex4
											{
												OFFSET 10.212402 0.000000 0.000001
												CHANNELS 3 Xrotation Yrotation Zrotation
												End Site
												{
													OFFSET -5.180801 8.690506 1.388433
												}
											}
										}
									}
								}
							}
						}
					}
				}
				JOINT RightShoulder
				{
					OFFSET -17.399500 24.608795 1.168800
					CHANNELS 3 Xrotation Yrotation Zrotation
					JOINT RightArm
					{
						OFFSET -18.980635 5.765305 1.818600
						CHANNELS 3 Xrotation Yrotation Zrotation
						JOINT RightForeArm
						{
							OFFSET -49.290169 0.000000 0.000000
							CHANNELS 3 Xrotation Yrotation Zrotation
							JOINT RightHand
							{
								OFFSET -31.562012 0.000000 0.000000
								CHANNELS 3 Xrotation Yrotation Zrotation
								JOINT RightHandThumb1
								{
									OFFSET -6.133995 -4.388519 7.076070
									CHANNELS 3 Xrotation Yrotation Zrotation
									JOINT RightHandThumb2
									{
										OFFSET -6.037666 -3.485840 3.485847
										CHANNELS 3 Xrotation Yrotation Zrotation
										JOINT RightHandThumb3
										{
											OFFSET -6.496506 -3.750763 3.750761
											CHANNELS 3 Xrotation Yrotation Zrotation
											JOINT RightHandThumb4
											{
												OFFSET -5.616882 -3.242905 3.242910
												CHANNELS 3 Xrotation Yrotation Zrotation
												End Site
												{
													OFFSET 1.254608 7.132141 0.375429
												}
											}
										}
									}
								}
								JOINT RightHandIndex1
								{
									OFFSET -21.310577 -0.490082 6.209344
									CHANNELS 3 Xrotation Yrotation Zrotation
									JOINT RightHandIndex2
									{
										OFFSET -7.536453 0.000000 0.000000
										CHANNELS 3 Xrotation Yrotation Zrotation
										JOINT RightHandIndex3
										{
											OFFSET -7.512344 0.000000 0.000000
											CHANNELS 3 Xrotation Yrotation Zrotation
											JOINT RightHandIndex4
											{
												OFFSET -10.212402 0.000000 0.000001
												CHANNELS 3 Xrotation Yrotation Zrotation
												End Site
												{
													OFFSET 5.180801 8.690506 1.388433
												}
											}
										}
									}
								}
								JOINT RightHandMiddle1
								{
									OFFSET -23.373947 0.000000 0.000001
									CHANNELS 3 Xrotation Yrotation Zrotation
									JOINT RightHandMiddle2
									{
										OFFSET -6.996567 0.000000 0.000000
										CHANNELS 3 Xrotation Yrotation Zrotation
										JOINT RightHandMiddle3
										{
											OFFSET -7.015945 0.000000 0.000000
											CHANNELS 3 Xrotation Yrotation Zrotation
											JOINT RightHandMiddle4
											{
												OFFSET -7.721573 0.000000 0.000000
												CHANNELS 3 Xrotation Yrotation Zrotation
												End Site
												{
													OFFSET 4.651108 6.158463 0.251582
												}
											}
										}
									}
								}
								JOINT RightHandRing1
								{
									OFFSET -22.726120 -0.094986 -6.500475
									CHANNELS 3 Xrotation Yrotation Zrotation
									JOINT RightHandRing2
									{
										OFFSET -6.408615 0.000000 0.000000
										CHANNELS 3 Xrotation Yrotation Zrotation
										JOINT RightHandRing3
										{
											OFFSET -6.150223 0.000000 0.000000
											CHANNELS 3 Xrotation Yrotation Zrotation
											JOINT RightHandRing4
											{
												OFFSET -6.145386 0.000000 0.000000
												CHANNELS 3 Xrotation Yrotation Zrotation
												End Site
												{
													OFFSET 3.671402 4.923981 -0.202372
												}
											}
										}
									}
								}
								JOINT RightHandPinky1
								{
									OFFSET -18.920792 -0.453171 -11.426712
									CHANNELS 3 Xrotation Yrotation Zrotation
									JOINT RightHandPinky2
									{
										OFFSET -4.919586 0.000000 0.000000
										CHANNELS 3 Xrotation Yrotation Zrotation
										JOINT RightHandPinky3
										{
											OFFSET -5.233047 0.000000 0.000000
											CHANNELS 3 Xrotation Yrotation Zrotation
											JOINT RightHandPinky4
											{
												OFFSET -5.571716 0.000000 0.000000
												CHANNELS 3 Xrotation Yrotation Zrotation
												End Site
												{
													OFFSET 3.459808 4.342407 -0.466164
												}
											}
										}
									}
								}
							}
						}
					}
				}
			}
		}
	}
	JOINT LeftUpLeg
	{
		OFFSET 19.899099 -7.885101 -3.429500
		CHANNELS 3 Xrotation Yrotation Zrotation
		JOINT LeftLeg
		{
			OFFSET 1.745560 -36.997807 10.304700
			CHANNELS 3 Xrotation Yrotation Zrotation
			JOINT LeftFoot
			{
				OFFSET -1.745558 -29.803308 -13.615400
				CHANNELS 3 Xrotation Yrotation Zrotation
				JOINT LeftToeBase
				{
					OFFSET 1.181900 -18.539904 15.226099
					CHANNELS 3 Xrotation Yrotation Zrotation
					JOINT LeftToe_End
					{
						OFFSET -0.863701 1.402801 16.534700
						CHANNELS 3 Xrotation Yrotation Zrotation
						End Site
						{
							OFFSET 0.000000 16.616566 0.000000
						}
					}
				}
			}
		}
	}
	JOINT RightUpLeg
	{
		OFFSET -19.899099 -7.885101 -3.429500
		CHANNELS 3 Xrotation Yrotation Zrotation
		JOINT RightLeg
		{
			OFFSET -1.745560 -36.997807 10.304700
			CHANNELS 3 Xrotation Yrotation Zrotation
			JOINT RightFoot
			{
				OFFSET 1.745558 -29.803308 -13.615400
				CHANNELS 3 Xrotation Yrotation Zrotation
				JOINT RightToeBase
				{
					OFFSET -1.181900 -18.539904 15.226099
					CHANNELS 3 Xrotation Yrotation Zrotation
					JOINT RightToe_End
					{
						OFFSET 0.863701 1.402801 16.534700
						CHANNELS 3 Xrotation Yrotation Zrotation
						End Site
						{
							OFFSET 0.000000 16.616566 0.000000
						}
					}
				}
			}
		}
	}
}
MOTION
Frames: 5
Frame Time: 0.033333
0.786957 73.683563 6.075504 49.692782 30.723431 -32.653283 17.901373 8.387657 2.611299 6.377050 1.557670 -0.111396 6.404063 1.388120 -0.042142 17.503357 25.733655 -13.589618 6.419593 27.790904 -38.142771 -0.000000 0.000001 0.000002 6.052180 18.668114 6.062556 54.771325 -53.775398 -15.877893 51.378988 -34.178956 41.045533 11.375149 -37.782475 32.639985 -9.331532 3.471385 -7.771907 -3.526428 5.992577 -11.731740 -5.298483 -23.916413 0.005887 0.000002 -0.000001 -0.000003 0.000720 20.812456 -16.406978 -0.017066 -0.031993 -51.783844 -0.978623 -1.238070 -38.752687 0.000002 -0.000001 -0.000006 3.582748 12.303610 -16.370782 -0.016420 -0.033083 -52.623524 0.347363 0.430509 -37.464718 0.000002 -0.000001 0.000005 -0.428328 -3.917232 -6.247933 -0.001109 -0.009770 -15.259816 -0.000000 -0.003321 -5.335854 -0.000004 0.000000 0.000006 2.950640 -12.213420 7.303431 -0.001898 -0.013102 -14.886843 0.118740 1.823912 -2.114280 -0.000002 0.000003 0.000004 0.910039 7.217212 -0.166609 -72.660611 42.457747 32.826217 25.387169 37.336649 -13.277172 -4.596305 -9.567049 -46.397946 -4.453589 -7.293464 20.381127 0.000580 -8.684411 0.000689 0.008993 -20.048046 0.012257 0.000000 0.000000 0.000002 -0.000524 -0.006695 -8.932509 -0.000526 0.007255 6.265805 0.110604 -1.827355 1.855357 0.000001 -0.000005 -0.000002 -0.000042 0.002626 3.005834 -0.000331 0.004894 6.344384 -0.000161 0.002563 4.029553 -0.000004 0.000003 -0.000009 2.546334 -5.987550 23.063901 -0.002733 0.015366 21.772999 -0.003951 0.018312 25.630975 -0.000000 0.000001 -0.000002 8.673201 -16.457419 33.264517 -0.008759 0.026282 37.071535 -0.018909 0.034382 59.657891 0.000004 0.000002 -0.000003 -93.000074 1.727294 -24.901623 62.045684 -4.010423 4.716467 22.075306 -0.594788 2.884084 -16.263104 -3.324003 11.580117 0.000000 -0.000000 0.000000 -53.207887 -2.061983 -16.066430 57.974905 -9.510874 7.892563 -30.053331 -7.258334 14.096359 -13.524715 0.955214 2.100567 -0.000000 0.000002 0.000000 
0.768242 72.927551 -3.325657 46.830147 29.392841 -30.040914 19.110118 6.519235 2.643484 7.159876 1.194556 0.094002 7.185847 0.967343 0.171274 18.272047 26.511540 -14.131107 5.546547 28.832377 -39.302213 0.000003 0.000001 -0.000001 5.597034 19.046254 7.247528 53.730376 -54.654255 -16.149625 50.808398 -34.652022 41.180406 12.202924 -38.358284 33.982404 -9.331532 3.471385 -7.771906 -3.526429 5.992573 -11.731740 -5.298486 -23.916415 0.005884 0.000002 0.000001 -0.000001 0.000714 20.812462 -16.406980 -0.017060 -0.031988 -51.783848 -0.978621 -1.238069 -38.752690 -0.000001 0.000002 -0.000005 3.582751 12.303607 -16.370775 -0.016414 -0.033077 -52.623520 0.347360 0.430505 -37.464711 -0.000002 -0.000001 0.000003 -0.428331 -3.917227 -6.247935 -0.001107 -0.009766 -15.259817 0.000002 -0.003319 -5.335856 0.000000 0.000000 0.000004 2.950637 -12.213420 7.303432 -0.001895 -0.013102 -14.886848 0.118736 1.823912 -2.114277 -0.000005 0.000002 -0.000003 0.966414 8.701602 -1.084776 -73.013315 41.071048 31.070059 22.775227 37.293502 -11.466512 -4.834754 -9.801071 -46.851546 -4.453588 -7.293466 20.381133 0.000583 -8.684414 0.000691 0.008998 -20.048046 0.012256 -0.000001 0.000001 -0.000001 -0.000523 -0.006701 -8.932506 -0.000529 0.007252 6.265797 0.110606 -1.827357 1.855358 0.000001 -0.000002 0.000003 -0.000038 0.002620 3.005835 -0.000332 0.004891 6.344387 -0.000159 0.002564 4.029552 -0.000001 0.000002 -0.000006 2.546338 -5.987555 23.063898 -0.002732 0.015368 21.773004 -0.003953 0.018309 25.630976 -0.000002 -0.000003 -0.000005 8.673200 -16.457428 33.264514 -0.008761 0.026284 37.071535 -0.018909 0.034382 59.657898 -0.000000 -0.000002 -0.000001 -92.476137 -2.876701 -21.820067 77.829459 1.616628 4.662991 15.625359 -0.504272 5.512184 -16.365393 2.335284 2.789287 -0.000001 0.000002 -0.000001 -60.321820 1.644889 -21.695917 56.815511 -5.826165 7.456103 -22.387909 -6.776964 17.241880 -9.927831 0.893171 0.743964 -0.000000 -0.000001 0.000000 
1.512566 72.836151 -12.513950 46.185128 28.328990 -28.400611 19.447050 3.900206 2.454944 7.393692 0.735492 0.118774 7.416723 0.453896 0.194329 19.439535 27.102788 -14.083422 4.612692 29.998136 -39.873114 0.000001 -0.000002 -0.000000 5.488621 18.967398 7.500929 53.346639 -55.371083 -16.320952 51.034880 -34.353290 41.431863 12.382696 -38.597799 34.211820 -9.331535 3.471383 -7.771907 -3.526424 5.992575 -11.731741 -5.298490 -23.916416 0.005880 -0.000000 -0.000000 -0.000001 0.000715 20.812462 -16.406977 -0.017061 -0.031994 -51.783848 -0.978620 -1.238071 -38.752690 -0.000000 0.000004 -0.000002 3.582745 12.303609 -16.370780 -0.016418 -0.033084 -52.623527 0.347360 0.430505 -37.464718 -0.000001 0.000001 0.000005 -0.428327 -3.917228 -6.247930 -0.001111 -0.009770 -15.259814 0.000003 -0.003319 -5.335857 -0.000000 0.000001 0.000007 2.950639 -12.213422 7.303432 -0.001895 -0.013102 -14.886846 0.118738 1.823902 -2.114278 -0.000002 0.000001 -0.000001 0.994643 9.008284 -0.859370 -73.399945 39.764176 30.862913 21.345316 37.497858 -10.481621 -4.330168 -9.064105 -46.469230 -4.453590 -7.293462 20.381129 0.000578 -8.684414 0.000688 0.008993 -20.048046 0.012256 0.000000 0.000001 -0.000000 -0.000527 -0.006700 -8.932507 -0.000525 0.007254 6.265800 0.110606 -1.827351 1.855362 -0.000002 -0.000003 0.000001 -0.000040 0.002626 3.005833 -0.000329 0.004894 6.344391 -0.000161 0.002564 4.029552 0.000001 0.000002 -0.000004 2.546339 -5.987550 23.063896 -0.002731 0.015364 21.773006 -0.003954 0.018309 25.630976 -0.000000 0.000001 -0.000005 8.673200 -16.457428 33.264524 -0.008760 0.026283 37.071542 -0.018909 0.034381 59.657891 -0.000000 -0.000002 0.000005 -88.089974 -8.977353 -19.165774 83.905527 5.108474 5.353732 10.908417 -0.470014 5.792945 -13.922610 8.158049 -8.559248 -0.000001 0.000001 0.000000 -68.006110 5.947440 -28.148120 52.352693 -3.749099 7.988549 -7.300968 -4.808536 20.678657 -11.346231 1.633103 0.250637 0.000000 0.000000 -0.000000 
3.130978 73.313393 -21.280315 47.606169 27.372763 -27.606839 18.625967 0.908117 1.948451 6.877262 0.329621 -0.104384 6.897126 0.019044 -0.039920 20.422595 27.413741 -13.262762 4.191924 30.976052 -39.859679 -0.000003 0.000001 0.000003 5.647157 18.486575 7.027842 53.824688 -55.579189 -16.334529 52.156742 -33.195006 41.579528 11.907944 -38.502668 33.367421 -9.331528 3.471384 -7.771904 -3.526427 5.992575 -11.731740 -5.298485 -23.916416 0.005880 0.000003 0.000001 0.000001 0.000718 20.812456 -16.406980 -0.017059 -0.031995 -51.783844 -0.978618 -1.238066 -38.752683 -0.000000 0.000004 -0.000005 3.582748 12.303607 -16.370778 -0.016421 -0.033074 -52.623524 0.347357 0.430506 -37.464711 0.000001 0.000001 0.000005 -0.428328 -3.917227 -6.247932 -0.001106 -0.009773 -15.259821 0.000002 -0.003317 -5.335859 -0.000001 0.000002 0.000009 2.950640 -12.213423 7.303430 -0.001894 -0.013104 -14.886845 0.118741 1.823913 -2.114281 0.000000 0.000001 -0.000001 0.930016 7.721612 0.919410 -73.478991 38.983281 31.760492 21.397625 38.001134 -10.521473 -3.587574 -8.187982 -45.316195 -4.453588 -7.293464 20.381127 0.000577 -8.684412 0.000690 0.008995 -20.048046 0.012256 0.000000 0.000002 0.000003 -0.000523 -0.006697 -8.932502 -0.000528 0.007252 6.265810 0.110607 -1.827354 1.855355 -0.000002 -0.000001 -0.000002 -0.000039 0.002623 3.005837 -0.000330 0.004891 6.344386 -0.000158 0.002563 4.029555 -0.000001 0.000000 -0.000002 2.546340 -5.987550 23.063899 -0.002731 0.015365 21.773002 -0.003956 0.018311 25.630971 -0.000001 0.000002 0.000000 8.673200 -16.457423 33.264520 -0.008762 0.026284 37.071535 -0.018912 0.034381 59.657898 -0.000000 -0.000002 0.000002 -82.356782 -13.591230 -16.792430 81.444501 6.138921 7.543581 7.487984 -0.260765 3.939021 -17.173503 11.735869 -14.707081 -0.000002 -0.000001 0.000000 -73.176072 9.170626 -32.691690 42.980178 -4.084944 6.348848 7.841999 -2.484153 23.652802 -12.619294 1.796000 1.080005 -0.000001 0.000001 0.000000 
5.289192 74.435806 -30.135262 50.004150 25.988045 -27.171392 16.826456 -1.241235 1.249245 5.753984 0.160414 -0.475796 5.773297 -0.137108 -0.427131 20.548074 27.494144 -12.037440 4.726855 31.437592 -39.494312 -0.000003 -0.000001 0.000001 5.958888 18.013989 6.151285 55.083239 -55.223674 -16.080564 53.998236 -31.408884 41.269150 11.023482 -38.136962 31.850596 -9.331533 3.471387 -7.771902 -3.526430 5.992574 -11.731744 -5.298480 -23.916418 0.005883 0.000003 -0.000001 0.000003 0.000715 20.812457 -16.406978 -0.017060 -0.031996 -51.783848 -0.978616 -1.238064 -38.752687 -0.000001 -0.000001 0.000001 3.582748 12.303605 -16.370780 -0.016420 -0.033078 -52.623527 0.347358 0.430508 -37.464718 -0.000000 0.000001 0.000002 -0.428323 -3.917225 -6.247931 -0.001107 -0.009770 -15.259814 -0.000001 -0.003318 -5.335860 0.000001 0.000002 0.000006 2.950636 -12.213416 7.303432 -0.001895 -0.013106 -14.886836 0.118743 1.823907 -2.114280 0.000001 0.000002 -0.000004 0.954920 5.234224 3.813666 -73.454812 39.272249 33.019030 22.943608 38.539885 -11.640824 -3.200044 -8.101831 -43.816087 -4.453592 -7.293462 20.381129 0.000579 -8.684412 0.000690 0.008995 -20.048046 0.012258 -0.000001 -0.000001 0.000002 -0.000525 -0.006698 -8.932508 -0.000525 0.007255 6.265808 0.110606 -1.827352 1.855359 -0.000000 0.000001 -0.000003 -0.000041 0.002625 3.005835 -0.000327 0.004891 6.344397 -0.000161 0.002565 4.029548 -0.000001 0.000000 -0.000001 2.546335 -5.987550 23.063899 -0.002731 0.015366 21.773002 -0.003957 0.018310 25.630973 -0.000000 0.000001 -0.000002 8.673202 -16.457421 33.264524 -0.008759 0.026282 37.071542 -0.018909 0.034377 59.657891 0.000000 -0.000001 0.000000 -76.563142 -15.009868 -14.793169 72.235623 5.006281 10.775890 3.820608 0.059973 1.559735 -28.144105 10.511072 -11.645009 -0.000000 0.000001 -0.000000 -74.191584 10.642210 -35.600066 29.833997 -5.464241 4.868359 17.847175 -0.525479 23.370961 -10.172020 0.642915 1.013605 0.000000 0.000000 -0.000001 
